<svg width="7" height="11" viewBox="0 0 7 11" fill="none" xmlns="http://www.w3.org/2000/svg">
<path d="M1.5086 10.9811C1.29528 10.9811 1.11292 10.9071 0.961525 10.7592C0.810132 10.6112 0.734436 10.4306 0.734436 10.2172C0.734436 10.0039 0.813573 9.81811 0.971847 9.65983L5.14202 5.49998L0.971847 1.34013C0.813573 1.18185 0.734436 0.996051 0.734436 0.782725C0.734436 0.569399 0.810132 0.388761 0.961525 0.240808C1.11292 0.0928564 1.29528 0.0188808 1.5086 0.0188808C1.70817 0.0188808 1.88708 0.091136 2.04536 0.235647L6.75229 4.92194C6.91745 5.07333 7.00002 5.26601 7.00002 5.49998C7.00002 5.72019 6.91745 5.91287 6.75229 6.07802L2.04536 10.7643C1.90085 10.9088 1.72193 10.9811 1.5086 10.9811Z" fill="#2997FF"/>
</svg>
